HIERARCHY
ROOT Hips
{
	OFFSET 0.000000 0.000000 0.000000
	CHANNELS 6 Xposition Yposition Zposition Xrotation Yrotation Zrotation
	JOINT LeftUpLeg_virtual
	{
		OFFSET 0.000000 0.000000 0.000000
		CHANNELS 3 Xrotation Yrotation Zrotation
		JOINT LeftUpLeg
		{
			OFFSET 10.205400 -3.823500 0.155100
			CHANNELS 3 Xrotation Yrotation Zrotation
			JOINT LeftLeg
			{
				OFFSET 0.708757 -12.982077 0.567790
				CHANNELS 3 Xrotation Yrotation Zrotation
				JOINT LeftFoot
				{
					OFFSET -0.708756 -10.717838 -2.184338
					CHANNELS 3 Xrotation Yrotation Zrotation
					JOINT LeftToeBase
					{
						OFFSET 0.108149 -7.191104 7.560241
						CHANNELS 3 Xrotation Yrotation Zrotation
						JOINT LeftToe_End
						{
							OFFSET 0.070230 0.081724 4.490308
							CHANNELS 3 Xrotation Yrotation Zrotation
							End Site
							{
								OFFSET 0 0 0
							}
						}
					}
				}
			}
		}
	}
	JOINT RightUpLeg_virtual
	{
		OFFSET 0.000000 0.000000 0.000000
		CHANNELS 3 Xrotation Yrotation Zrotation
		JOINT RightUpLeg
		{
			OFFSET -10.205400 -3.823500 0.005500
			CHANNELS 3 Xrotation Yrotation Zrotation
			JOINT RightLeg
			{
				OFFSET -0.708756 -12.982134 0.610632
				CHANNELS 3 Xrotation Yrotation Zrotation
				JOINT RightFoot
				{
					OFFSET 0.708754 -10.717769 -1.945823
					CHANNELS 3 Xrotation Yrotation Zrotation
					JOINT RightToeBase
					{
						OFFSET -0.108140 -7.191069 7.372968
						CHANNELS 3 Xrotation Yrotation Zrotation
						JOINT RightToe_End
						{
							OFFSET -0.070227 0.081735 4.479403
							CHANNELS 3 Xrotation Yrotation Zrotation
							End Site
							{
								OFFSET 0 0 0
							}
						}
					}
				}
			}
		}
	}
	JOINT Spine_virtual
	{
		OFFSET 0.000000 0.000000 0.000000
		CHANNELS 3 Xrotation Yrotation Zrotation
		JOINT Spine
		{
			OFFSET 0.000000 6.876099 0.125700
			CHANNELS 3 Xrotation Yrotation Zrotation
			JOINT Spine1
			{
				OFFSET 0.000000 5.730043 0.104720
				CHANNELS 3 Xrotation Yrotation Zrotation
				JOINT Spine1_split
				{
					OFFSET 0.000000 5.730043 0.104720
					CHANNELS 3 Xrotation Yrotation Zrotation
					JOINT Spine2
					{
						OFFSET 0.000000 5.730043 0.104720
						CHANNELS 3 Xrotation Yrotation Zrotation
						JOINT Neck_virtual
						{
							OFFSET 0.000000 0.000000 0.000000
							CHANNELS 3 Xrotation Yrotation Zrotation
							JOINT Neck
							{
								OFFSET 0.000000 10.314075 0.188496
								CHANNELS 3 Xrotation Yrotation Zrotation
								JOINT Head
								{
									OFFSET 0.000000 7.643700 -2.377400
									CHANNELS 3 Xrotation Yrotation Zrotation
									JOINT HeadTop_End
									{
										OFFSET 0.000000 43.788605 -13.619600
										CHANNELS 3 Xrotation Yrotation Zrotation
										End Site
										{
											OFFSET 0 0 0
										}
									}
								}
							}
						}
						JOINT LeftShoulder_virtual
						{
							OFFSET 0.000000 0.000000 0.000000
							CHANNELS 3 Xrotation Yrotation Zrotation
							JOINT LeftShoulder
							{
								OFFSET 2.196100 4.412489 0.087492
								CHANNELS 3 Xrotation Yrotation Zrotation
								JOINT LeftShoulder_split
								{
									OFFSET 2.196100 4.412489 0.087492
									CHANNELS 3 Xrotation Yrotation Zrotation
									JOINT LeftArm
									{
										OFFSET 8.771219 -2.981674 -0.026999
										CHANNELS 3 Xrotation Yrotation Zrotation
										JOINT LeftForeArm
										{
											OFFSET 8.512804 0.000000 -0.000000
											CHANNELS 3 Xrotation Yrotation Zrotation
											JOINT LeftHand
											{
												OFFSET 18.484802 0.000000 -0.000000
												CHANNELS 3 Xrotation Yrotation Zrotation
												End Site
												{
													OFFSET 0 0 0
												}
											}
										}
									}
								}
							}
						}
						JOINT RightShoulder_virtual
						{
							OFFSET 0.000000 0.000000 0.000000
							CHANNELS 3 Xrotation Yrotation Zrotation
							JOINT RightShoulder
							{
								OFFSET -2.196100 4.412496 0.070690
								CHANNELS 3 Xrotation Yrotation Zrotation
								JOINT RightShoulder_split
								{
									OFFSET -2.196100 4.412496 0.070690
									CHANNELS 3 Xrotation Yrotation Zrotation
									JOINT RightArm
									{
										OFFSET -8.771282 -2.981682 -0.094208
										CHANNELS 3 Xrotation Yrotation Zrotation
										JOINT RightForeArm
										{
											OFFSET -8.494598 0.000000 0.000000
											CHANNELS 3 Xrotation Yrotation Zrotation
											JOINT RightHand
											{
												OFFSET -18.483803 0.000000 0.000001
												CHANNELS 3 Xrotation Yrotation Zrotation
												End Site
												{
													OFFSET 0 0 0
												}
											}
										}
									}
								}
							}
						}
					}
				}
			}
		}
	}
}
MOTION
Frames: 9
Frame Time: 0.03333333
-0.825002 35.133255 3.884500 0.000000 0.000000 0.000000 -23.117801 -6.348767 -1.407822 -78.433637 6.492382 36.743160 135.287251 -30.929402 -2.597690 -48.484911 -9.903299 19.057090 -46.495594 -2.668619 -1.962168 0.000000 0.000000 0.000000 -23.117801 -6.348767 -1.407822 -118.823626 -4.932514 -32.440472 140.490339 16.050200 -2.156930 -26.657149 0.631188 -2.418725 -38.848525 6.007868 10.675293 0.000000 0.000000 0.000000 -23.117801 -6.348767 -1.407822 7.686286 -0.324556 -0.876887 15.374078 -1.676407 -0.551058 0.000000 0.000000 0.000000 0.000000 0.000000 0.000000 15.374081 -1.676407 -0.551058 -11.803037 2.538411 0.513533 -20.543595 1.060036 1.922752 0.000000 0.000000 0.000000 15.374081 -1.676407 -0.551058 -0.117983 -1.799425 36.289335 0.000000 0.000000 0.000000 -52.783237 -25.523891 -11.661704 -14.599478 -27.801863 2.187897 0.000000 0.000000 0.000000 15.374081 -1.676407 -0.551058 9.813669 24.196311 -37.946065 0.000000 0.000000 0.000000 -46.242218 23.161313 -4.673677 -22.075470 26.224119 3.020022 0.000000 0.000000 0.000000 
-0.884703 34.993473 3.967379 0.000000 0.000000 0.000000 -22.435964 -6.297900 -1.397880 -79.039195 5.702948 36.681954 135.902569 -31.224674 -2.806617 -49.365097 -9.921137 18.921516 -46.160068 -2.755997 -2.168637 0.000000 0.000000 0.000000 -22.435964 -6.297900 -1.397880 -119.466087 -4.551983 -31.491045 140.748984 16.196276 -2.066500 -27.509453 0.368885 -1.917118 -38.303837 5.515832 10.350558 0.000000 0.000000 0.000000 -22.435964 -6.297900 -1.397880 7.519189 -0.265994 -0.826645 15.039629 -1.534572 -0.418301 0.000000 0.000000 0.000000 0.000000 0.000000 0.000000 15.039643 -1.534573 -0.418302 -17.769910 2.710622 0.790330 -16.597921 1.605598 1.335111 0.000000 0.000000 0.000000 15.039643 -1.534573 -0.418302 -0.794081 -0.411285 37.037814 0.000000 0.000000 0.000000 -53.107364 -25.119645 -13.105109 -14.758160 -28.996673 2.732917 0.000000 0.000000 0.000000 15.039643 -1.534573 -0.418302 9.273481 22.311026 -38.387907 0.000000 0.000000 0.000000 -46.870913 23.501720 -2.942157 -21.212580 27.007452 1.920330 0.000000 0.000000 0.000000 
-0.911783 35.019485 3.994779 0.000000 0.000000 0.000000 -21.427029 -6.213599 -1.460257 -80.365795 5.147095 36.168529 136.286125 -30.311396 -2.706923 -49.319498 -9.555493 18.520324 -46.431728 -2.676226 -2.635087 0.000000 0.000000 0.000000 -21.427029 -6.213599 -1.460257 -119.930964 -4.237370 -30.586277 140.601220 16.044256 -1.985480 -27.641204 0.156359 -1.571011 -38.571079 4.946000 10.565125 0.000000 0.000000 0.000000 -21.427029 -6.213599 -1.460257 7.136410 -0.228374 -0.738543 14.274076 -1.394823 -0.228714 0.000000 0.000000 0.000000 0.000000 0.000000 0.000000 14.274070 -1.394824 -0.228715 -23.605294 2.824561 1.341884 -12.221443 2.150335 0.584533 0.000000 0.000000 0.000000 14.274070 -1.394824 -0.228715 -1.351301 0.585390 37.896656 0.000000 0.000000 0.000000 -54.106303 -24.664004 -16.084361 -14.545345 -29.884154 3.360786 0.000000 0.000000 0.000000 14.274070 -1.394824 -0.228715 8.659237 20.554170 -38.660769 0.000000 0.000000 0.000000 -48.041119 24.002511 0.198548 -20.014607 28.209959 0.737816 0.000000 0.000000 0.000000 
-0.889322 35.275879 3.939406 0.000000 0.000000 0.000000 -20.361735 -6.156867 -1.667158 -82.459351 4.896855 35.168528 136.235773 -27.755616 -2.183719 -47.448873 -8.518054 17.631647 -48.146803 -2.506392 -3.460428 0.000000 0.000000 0.000000 -20.361735 -6.156867 -1.667158 -120.015057 -4.157610 -29.750467 139.863559 15.277164 -1.997031 -26.404478 -0.011803 -1.263570 -40.195643 4.386255 11.525179 0.000000 0.000000 0.000000 -20.361735 -6.156867 -1.667158 6.589626 -0.225490 -0.601621 13.181101 -1.275150 0.029298 0.000000 0.000000 0.000000 0.000000 0.000000 0.000000 13.181099 -1.275147 0.029299 -28.539145 2.791947 2.010080 -7.542242 2.563846 -0.228354 0.000000 0.000000 0.000000 13.181099 -1.275147 0.029299 -1.573338 0.806860 38.796919 0.000000 0.000000 0.000000 -55.559887 -23.610629 -20.463435 -13.992635 -30.797002 4.188687 0.000000 0.000000 0.000000 13.181099 -1.275147 0.029299 8.245038 19.384432 -38.889892 0.000000 0.000000 0.000000 -49.481254 24.303626 4.418804 -18.794237 29.794112 -0.558943 0.000000 0.000000 0.000000 
-0.797188 35.804932 3.737491 0.000000 0.000000 0.000000 -20.089962 -6.150522 -2.111178 -84.468096 5.081737 33.853238 135.223921 -23.804884 -1.313947 -42.899824 -6.850520 16.258584 -51.749458 -2.404960 -4.542425 0.000000 0.000000 0.000000 -20.089962 -6.150522 -2.111178 -118.666641 -4.469208 -29.160413 138.235516 13.983652 -2.105907 -23.525169 -0.133540 -0.895206 -43.395860 4.064786 13.210630 0.000000 0.000000 0.000000 -20.089962 -6.150522 -2.111178 6.164113 -0.257060 -0.412804 12.331300 -1.188794 0.330882 0.000000 0.000000 0.000000 0.000000 0.000000 0.000000 12.331290 -1.188792 0.330882 -31.678025 2.558239 2.544756 -2.949755 2.705118 -0.921438 0.000000 0.000000 0.000000 12.331290 -1.188792 0.330882 -1.275760 0.062690 39.435115 0.000000 0.000000 0.000000 -56.937024 -21.631122 -25.178323 -13.343855 -32.183800 5.250929 0.000000 0.000000 0.000000 12.331290 -1.188792 0.330882 8.219837 19.112905 -39.109906 0.000000 0.000000 0.000000 -50.738593 24.159301 8.711655 -17.936838 31.430823 -1.919354 0.000000 0.000000 0.000000 
-0.627205 36.623917 3.293954 0.000000 0.000000 0.000000 -21.707367 -6.132324 -2.840782 -84.455275 5.869862 32.610909 132.547006 -19.559884 -0.379111 -35.832470 -5.077328 14.747538 -56.578155 -2.476344 -5.582875 0.000000 0.000000 0.000000 -21.707367 -6.132324 -2.840782 -114.069453 -5.305273 -29.023827 135.280065 12.807942 -2.192446 -19.642287 -0.221315 -0.500555 -47.647434 4.212645 15.262095 0.000000 0.000000 0.000000 -21.707367 -6.132324 -2.840782 6.311147 -0.300173 -0.189619 12.626645 -1.129670 0.613264 0.000000 0.000000 0.000000 0.000000 0.000000 0.000000 12.626646 -1.129670 0.613263 -32.525211 2.181563 2.774181 0.886728 2.532700 -1.329374 0.000000 0.000000 0.000000 12.626646 -1.129670 0.613263 -0.516012 -1.365476 39.258186 0.000000 0.000000 0.000000 -57.919355 -19.070470 -28.772370 -12.790873 -34.687819 6.600278 0.000000 0.000000 0.000000 12.626646 -1.129670 0.613263 8.437783 19.559369 -39.055309 0.000000 0.000000 0.000000 -51.660723 23.779811 11.868931 -17.480005 32.931064 -3.320788 0.000000 0.000000 0.000000 
-0.400283 37.766327 2.533458 0.000000 0.000000 0.000000 -25.683017 -5.989984 -3.803913 -80.686322 7.363600 31.729726 127.626675 -16.055415 0.394510 -27.288614 -3.595775 13.450653 -61.370370 -2.647068 -6.415616 0.000000 0.000000 0.000000 -25.683017 -5.989984 -3.803913 -105.151275 -6.944019 -29.166564 130.461804 12.121269 -2.211427 -15.476065 -0.372920 -0.157912 -52.142924 4.773373 17.315532 0.000000 0.000000 0.000000 -25.683017 -5.989984 -3.803913 7.334300 -0.333171 0.029611 14.673838 -1.076007 0.818299 0.000000 0.000000 0.000000 0.000000 0.000000 0.000000 14.673845 -1.076012 0.818299 -31.236344 1.815642 2.737698 3.236766 2.155826 -1.413135 0.000000 0.000000 0.000000 14.673845 -1.076012 0.818299 0.349715 -2.840393 37.693044 0.000000 0.000000 0.000000 -58.946595 -16.925564 -30.604746 -12.214882 -38.578012 8.350510 0.000000 0.000000 0.000000 14.673845 -1.076012 0.818299 8.450945 20.232864 -38.178428 0.000000 0.000000 0.000000 -52.703737 23.830552 13.355976 -17.176659 34.347901 -4.788409 0.000000 0.000000 0.000000 
-0.211982 39.278603 1.488810 0.000000 0.000000 0.000000 -31.390720 -5.684019 -4.873573 -72.923061 9.308685 31.305072 119.947903 -14.022377 0.913550 -18.015563 -2.311529 12.370775 -65.564372 -2.742652 -7.186625 0.000000 0.000000 0.000000 -31.390720 -5.684019 -4.873573 -92.862098 -9.961816 -28.855719 123.435452 11.392423 -2.429162 -10.969260 -0.637393 -0.044650 -56.567128 5.228326 19.278226 0.000000 0.000000 0.000000 -31.390720 -5.684019 -4.873573 9.151341 -0.345195 0.214334 18.308197 -1.011842 0.932749 0.000000 0.000000 0.000000 0.000000 0.000000 0.000000 18.308192 -1.011847 0.932751 -28.356606 1.572494 2.536689 3.720170 1.743146 -1.223751 0.000000 0.000000 0.000000 18.308192 -1.011847 0.932751 0.920399 -3.760779 34.485133 0.000000 0.000000 0.000000 -60.840067 -16.273590 -31.318552 -11.269927 -43.196049 10.631754 0.000000 0.000000 0.000000 18.308192 -1.011847 0.932751 7.987852 20.978555 -36.039042 0.000000 0.000000 0.000000 -54.390753 24.929212 13.385020 -17.024578 35.667965 -6.156531 0.000000 0.000000 0.000000 
-0.020634 41.219494 0.247553 0.000000 0.000000 0.000000 -37.446345 -5.279872 -5.894022 -62.435449 12.146060 30.613065 108.614959 -13.002419 1.312053 -7.762416 -1.103787 11.302869 -70.151609 -2.687564 -8.056276 0.000000 0.000000 0.000000 -37.446345 -5.279872 -5.894022 -79.294849 -13.810057 -27.772393 113.528918 10.724794 -3.018811 -4.612212 -0.890589 -0.031611 -61.371558 4.947274 21.295881 0.000000 0.000000 0.000000 -37.446345 -5.279872 -5.894022 11.329870 -0.364824 0.351311 22.665155 -0.942751 0.994058 0.000000 0.000000 0.000000 0.000000 0.000000 0.000000 22.665175 -0.942752 0.994058 -24.389547 1.374043 2.074508 2.747544 1.350889 -0.784066 0.000000 0.000000 0.000000 22.665175 -0.942752 0.994058 1.102650 -3.935421 29.877416 0.000000 0.000000 0.000000 -63.981599 -17.386609 -32.467403 -9.460673 -47.470108 13.619812 0.000000 0.000000 0.000000 22.665175 -0.942752 0.994058 7.325017 22.385802 -32.659513 0.000000 0.000000 0.000000 -56.528442 27.027318 12.347770 -17.130941 36.973204 -7.010568 0.000000 0.000000 0.000000 
